<svg width="672" height="517" viewBox="0 0 672 517" fill="none" xmlns="http://www.w3.org/2000/svg">
<g clip-path="url(#clip0_317_243)">
<path d="M450.017 145.447C464.423 106.715 498.459 73.2475 539.591 69.2666C514.862 106.79 504.203 151.851 509.499 196.477C511.604 213.68 515.737 232.595 506.463 247.236C500.693 256.347 490.524 261.956 480.041 264.487C469.558 267.018 458.636 266.822 447.854 266.611L445.44 267.803C437.857 227.18 435.611 184.18 450.017 145.447Z" fill="#F0F0F0"/>
<path d="M539.79 70.1101C511.75 89.6994 490.595 117.626 479.33 149.923C476.959 156.856 475.157 164.097 475.053 171.46C475.007 178.637 476.884 185.697 480.489 191.904C483.733 197.759 487.731 203.372 489.496 209.914C491.356 216.81 489.84 223.785 486.039 229.743C481.389 237.032 474.398 242.216 467.384 247.047C459.597 252.412 451.424 257.861 446.659 266.288C446.082 267.309 444.531 266.354 445.108 265.334C453.397 250.672 470.795 245.346 481.438 232.891C486.404 227.08 489.649 219.737 488.114 211.998C486.771 205.231 482.654 199.439 479.317 193.539C475.814 187.344 473.525 180.915 473.258 173.747C472.985 166.415 474.508 159.089 476.691 152.125C481.761 136.37 489.276 121.51 498.961 108.089C509.93 92.7113 523.449 79.3228 538.932 68.5033C539.891 67.834 540.743 69.4452 539.79 70.1101Z" fill="white"/>
<path d="M482.346 139.31C477.184 136.684 473.123 132.309 470.889 126.966C468.655 121.623 468.392 115.659 470.149 110.141C470.508 109.025 472.259 109.531 471.899 110.648C470.254 115.784 470.498 121.339 472.589 126.31C474.679 131.282 478.478 135.342 483.3 137.758C484.347 138.285 483.387 139.833 482.346 139.31Z" fill="white"/>
<path d="M478.453 189.152C489.742 185.586 499.272 177.897 505.144 167.616C505.725 166.597 507.276 167.553 506.695 168.57C500.565 179.257 490.631 187.239 478.875 190.924C477.754 191.274 477.338 189.501 478.453 189.152Z" fill="white"/>
<path d="M511.177 94.7796C512.963 96.2117 515.076 97.1779 517.327 97.5914C519.579 98.0049 521.897 97.8527 524.075 97.1486C525.191 96.7841 525.606 98.5581 524.498 98.9202C522.088 99.687 519.527 99.8519 517.039 99.4006C514.55 98.9493 512.21 97.8955 510.223 96.3312C510.023 96.1994 509.881 95.9966 509.826 95.7639C509.77 95.5312 509.805 95.2862 509.924 95.0785C510.051 94.8737 510.254 94.7274 510.489 94.6715C510.724 94.6155 510.971 94.6544 511.177 94.7796Z" fill="white"/>
<path d="M638.734 167.996C638.044 168.243 637.353 168.49 636.659 168.753C627.396 172.127 618.423 176.248 609.828 181.075C609.158 181.437 608.484 181.815 607.825 182.196C587.242 194.047 569.037 209.616 554.137 228.112C548.215 235.477 542.861 243.283 538.123 251.46C531.58 262.754 525.385 275.52 515.776 283.751C514.783 284.621 513.737 285.429 512.645 286.169L447.081 270.655C446.95 270.545 446.814 270.45 446.682 270.34L444.036 269.84C444.251 269.401 444.483 268.951 444.698 268.512C444.822 268.257 444.96 268.005 445.084 267.75C445.171 267.581 445.259 267.412 445.327 267.255C445.356 267.198 445.386 267.142 445.411 267.101C445.48 266.943 445.56 266.804 445.626 266.662C446.917 264.14 448.229 261.623 449.561 259.111C449.564 259.096 449.564 259.096 449.582 259.084C459.778 239.966 471.658 221.532 485.959 205.487C486.39 205.004 486.823 204.506 487.283 204.031C493.77 196.834 500.833 190.18 508.404 184.134C512.56 180.837 516.88 177.752 521.348 174.892C532.907 167.523 545.553 162.019 558.822 158.58C585.275 151.729 613.625 153.414 636.961 166.944C637.558 167.291 638.141 167.634 638.734 167.996Z" fill="#F0F0F0"/>
<path d="M638.389 168.793C604.207 167.552 570.502 177.113 542.063 196.118C535.995 200.226 530.197 204.922 525.681 210.739C521.323 216.442 518.571 223.208 517.712 230.335C516.778 236.963 516.59 243.852 514.06 250.138C511.394 256.763 505.983 261.42 499.362 263.889C491.261 266.909 482.558 266.839 474.049 266.474C464.601 266.069 454.795 265.498 445.917 269.359C444.841 269.826 444.178 268.13 445.252 267.663C460.699 260.947 477.796 267.169 493.793 263.632C501.257 261.982 508.269 258.073 511.702 250.97C514.704 244.758 514.904 237.655 515.792 230.935C516.725 223.879 518.768 217.368 522.87 211.484C527.067 205.466 532.693 200.533 538.63 196.287C552.163 186.76 567.11 179.42 582.923 174.535C600.94 168.861 619.795 166.31 638.671 166.993C639.84 167.036 639.55 168.835 638.389 168.793Z" fill="white"/>
<path d="M550.86 189.459C548.319 184.255 547.711 178.317 549.144 172.705C550.577 167.094 553.958 162.175 558.684 158.826C559.642 158.152 560.735 159.61 559.775 160.285C555.369 163.395 552.22 167.978 550.896 173.206C549.573 178.434 550.161 183.963 552.556 188.795C553.075 189.846 551.376 190.504 550.86 189.459Z" fill="white"/>
<path d="M517.743 226.911C528.904 230.861 541.143 230.459 552.021 225.786C553.098 225.322 553.761 227.019 552.685 227.482C541.357 232.324 528.619 232.716 517.014 228.58C515.908 228.185 516.643 226.518 517.743 226.911Z" fill="white"/>
<path d="M600.691 171.263C601.254 173.481 602.36 175.525 603.908 177.211C605.457 178.896 607.4 180.171 609.563 180.92C610.673 181.301 609.937 182.967 608.834 182.589C606.448 181.75 604.304 180.34 602.589 178.481C600.874 176.623 599.64 174.372 598.995 171.927C598.915 171.702 598.923 171.454 599.019 171.235C599.115 171.016 599.291 170.841 599.51 170.747C599.735 170.66 599.986 170.666 600.207 170.762C600.428 170.859 600.601 171.039 600.691 171.263Z" fill="white"/>
<path d="M70.1355 500.476C32.6016 483.186 1.79997 446.72 0.936523 405.405C36.4855 432.897 80.613 446.928 125.512 445.017C142.824 444.217 161.997 441.525 175.897 451.878C184.545 458.319 189.37 468.883 191.102 479.527C192.834 490.171 191.814 501.048 190.79 511.783L191.796 514.28C150.717 518.774 107.669 517.765 70.1355 500.476Z" fill="#F0F0F0"/>
<path d="M1.79309 405.27C19.2089 434.709 45.458 457.913 76.812 471.584C83.547 474.472 90.6305 476.816 97.9647 477.475C105.118 478.064 112.299 476.725 118.761 473.599C124.844 470.806 130.743 467.244 137.4 465.978C144.416 464.644 151.257 466.683 156.911 470.922C163.828 476.109 168.469 483.473 172.757 490.831C177.519 499.001 182.335 507.562 190.378 512.95C191.353 513.602 190.283 515.077 189.31 514.425C175.315 505.051 171.318 487.301 159.703 475.748C154.283 470.357 147.206 466.567 139.374 467.514C132.525 468.342 126.438 472.009 120.303 474.891C113.861 477.917 107.277 479.714 100.11 479.438C92.7783 479.157 85.5882 477.085 78.8089 474.382C63.4817 468.138 49.2316 459.522 36.5807 448.851C22.0747 436.752 9.74538 422.261 0.126008 406.004C-0.468992 404.998 1.20202 404.27 1.79309 405.27Z" fill="white"/>
<path d="M66.457 467.776C63.4491 472.725 58.7799 476.444 53.2832 478.268C47.7865 480.093 41.8204 479.904 36.4502 477.735C35.3651 477.293 36.0017 475.586 37.0883 476.029C42.0853 478.057 47.6428 478.233 52.7578 476.524C57.8728 474.814 62.2084 471.333 64.982 466.708C65.5859 465.703 67.0575 466.778 66.457 467.776Z" fill="white"/>
<path d="M115.863 475.422C113.16 463.896 106.212 453.812 96.4043 447.181C95.4321 446.524 96.5016 445.05 97.4727 445.705C107.666 452.625 114.875 463.134 117.661 475.134C117.926 476.278 116.126 476.56 115.863 475.422Z" fill="white"/>
<path d="M24.2313 435.665C25.7941 433.992 26.9171 431.958 27.4994 429.744C28.0817 427.53 28.1051 425.207 27.5675 422.982C27.2883 421.842 29.0886 421.562 29.3659 422.694C29.9485 425.155 29.9196 427.721 29.2817 430.169C28.6437 432.616 27.4162 434.87 25.7063 436.733C25.5599 436.922 25.3469 437.048 25.1107 437.086C24.8744 437.124 24.6327 437.07 24.4346 436.936C24.24 436.794 24.1095 436.58 24.0714 436.342C24.0333 436.104 24.0908 435.861 24.2313 435.665Z" fill="white"/>
<path d="M106.871 314.001C107.065 314.708 107.26 315.415 107.469 316.127C110.134 325.618 113.565 334.876 117.73 343.811C118.041 344.507 118.366 345.208 118.697 345.893C128.959 367.313 143.109 386.641 160.427 402.896C167.324 409.357 174.703 415.285 182.499 420.627C193.267 428.004 205.529 435.146 213.01 445.349C213.803 446.404 214.529 447.508 215.185 448.654L194.764 512.859C194.645 512.981 194.539 513.109 194.42 513.232L193.721 515.833C193.3 515.586 192.868 515.32 192.447 515.073C192.202 514.93 191.962 514.773 191.717 514.631C191.555 514.531 191.393 514.431 191.241 514.351C191.187 514.318 191.133 514.284 191.094 514.256C190.942 514.175 190.81 514.084 190.672 514.008C188.255 512.53 185.845 511.032 183.44 509.514C183.425 509.51 183.425 509.51 183.415 509.491C165.122 497.881 147.637 484.642 132.718 469.17C132.269 468.704 131.805 468.235 131.366 467.74C124.68 460.729 118.578 453.183 113.121 445.177C110.147 440.784 107.397 436.243 104.882 431.572C98.4078 419.49 93.8739 406.464 91.447 392.973C86.613 366.079 90.4342 337.937 105.688 315.689C106.079 315.12 106.465 314.565 106.871 314.001Z" fill="#F0F0F0"/>
<path d="M107.64 314.404C103.821 348.395 110.809 382.726 127.612 412.519C131.251 418.88 135.496 425.016 140.955 429.958C146.312 434.735 152.852 437.99 159.893 439.384C166.432 440.817 173.286 441.524 179.363 444.521C185.769 447.68 190.004 453.427 191.965 460.216C194.365 468.522 193.638 477.195 192.631 485.652C191.514 495.042 190.205 504.777 193.384 513.922C193.769 515.03 192.027 515.563 191.642 514.456C186.112 498.547 193.608 481.968 191.289 465.75C190.207 458.183 186.839 450.895 180.015 446.936C174.048 443.473 166.98 442.737 160.347 441.344C153.381 439.881 147.043 437.352 141.486 432.817C135.801 428.178 131.308 422.195 127.522 415.955C119.044 401.741 112.853 386.283 109.177 370.146C104.879 351.752 103.759 332.758 105.866 313.987C105.997 312.825 107.77 313.25 107.64 314.404Z" fill="white"/>
<path d="M121.637 403.244C116.256 405.385 110.289 405.543 104.802 403.69C99.3144 401.837 94.6645 398.094 91.6823 393.13C91.0823 392.123 92.6184 391.144 93.2192 392.152C95.9876 396.78 100.319 400.266 105.433 401.981C110.546 403.696 116.103 403.526 121.103 401.503C122.189 401.065 122.718 402.808 121.637 403.244Z" fill="white"/>
<path d="M156.482 439.095C161.263 428.264 161.787 416.03 157.948 404.83C157.567 403.721 159.309 403.188 159.689 404.296C163.662 415.958 163.091 428.689 158.091 439.948C157.613 441.021 156.007 440.162 156.482 439.095Z" fill="white"/>
<path d="M107.255 352.182C109.51 351.788 111.632 350.84 113.429 349.423C115.227 348.006 116.645 346.164 117.555 344.064C118.019 342.986 119.625 343.846 119.164 344.918C118.148 347.233 116.58 349.265 114.597 350.835C112.614 352.404 110.277 353.465 107.79 353.923C107.559 353.986 107.313 353.959 107.102 353.847C106.89 353.735 106.73 353.546 106.652 353.32C106.583 353.089 106.607 352.84 106.72 352.627C106.833 352.414 107.025 352.254 107.255 352.182Z" fill="white"/>
<path d="M156.558 272.157C123.391 239.508 109.384 205.446 117.113 176.247C127.033 138.777 171.102 112.87 238.02 105.168L238.267 107.317C172.281 114.911 128.884 140.237 119.205 176.801C111.682 205.217 125.486 238.534 158.075 270.616L156.558 272.157Z" fill="#F0F0F0"/>
<path d="M476.555 388.054C435.162 388.054 390.181 381.903 345.501 370.075C290.25 355.447 239.59 333.369 198.998 306.226L200.2 304.428C240.596 331.44 291.032 353.417 346.055 367.983C395.778 381.148 445.875 387.247 490.91 385.638L490.988 387.799C486.232 387.97 481.421 388.055 476.555 388.054Z" fill="#F0F0F0"/>
<path d="M571.517 374.451L570.824 372.402C607.845 359.885 631 339.722 637.786 314.09C646.412 281.506 627.672 243.694 585.017 207.62C542.145 171.362 480.323 141.278 410.936 122.909L411.489 120.817C481.179 139.267 543.303 169.508 586.413 205.969C629.742 242.612 648.729 281.207 639.877 314.644C632.897 341.011 609.258 361.692 571.517 374.451Z" fill="#F0F0F0"/>
<path d="M231.58 388.958C150.244 352.885 87.569 306.084 55.1005 257.177L56.9023 255.98C89.1465 304.549 151.493 351.073 232.457 386.981L231.58 388.958Z" fill="#F0F0F0"/>
<path d="M517.549 451.452C509.16 451.452 500.627 451.265 491.951 450.89L492.044 448.729C556.79 451.532 613.917 443.784 657.259 426.318L658.068 428.325C620.259 443.559 572.069 451.452 517.549 451.452Z" fill="#F0F0F0"/>
<path d="M470.357 107.108C456.914 102.731 443.087 98.6557 429.259 94.9949C349.685 73.9291 271.464 66.4496 203.048 73.3693L202.83 71.2168C271.501 64.2744 349.991 71.7718 429.812 92.9037C443.679 96.575 457.546 100.662 471.027 105.051L470.357 107.108Z" fill="#F0F0F0"/>
<path d="M105.725 275.402C72.5588 242.752 58.551 208.691 66.2808 179.492C76.2006 142.022 120.269 116.114 187.187 108.413L187.435 110.562C121.448 118.156 78.0516 143.482 68.3721 180.045C60.8493 208.461 74.6538 241.779 107.243 273.861L105.725 275.402Z" fill="#F0F0F0"/>
<path d="M425.723 391.299C384.329 391.299 339.348 385.148 294.669 373.319C239.417 358.692 188.757 336.614 148.166 309.47L149.368 307.673C189.763 334.685 240.199 356.662 295.222 371.228C344.946 384.392 395.042 390.492 440.077 388.882L440.156 391.043C435.4 391.214 430.589 391.3 425.723 391.299Z" fill="#F0F0F0"/>
<path d="M520.684 377.696L519.991 375.647C557.012 363.13 580.167 342.967 586.953 317.335C595.579 284.751 576.839 246.939 534.185 210.865C491.312 174.607 429.49 144.522 360.103 126.153L360.657 124.062C430.347 142.512 492.47 172.752 535.581 209.213C578.909 245.857 597.897 284.452 589.045 317.888C582.064 344.255 558.425 364.936 520.684 377.696Z" fill="#F0F0F0"/>
<path d="M180.747 392.203C99.4116 356.13 36.7364 309.329 4.26782 260.421L6.0697 259.225C38.3138 307.794 100.66 354.317 181.624 390.226L180.747 392.203Z" fill="#F0F0F0"/>
<path d="M466.717 454.697C458.327 454.697 449.795 454.509 441.119 454.135L441.212 451.974C505.958 454.777 563.084 447.029 606.426 429.562L607.235 431.569C569.427 446.804 521.237 454.697 466.717 454.697Z" fill="#F0F0F0"/>
<path d="M419.525 110.353C406.082 105.976 392.254 101.9 378.426 98.2395C298.853 77.1737 220.631 69.6943 152.215 76.6139L151.998 74.4614C220.669 67.519 299.158 75.0164 378.98 96.1483C392.846 99.8196 406.713 103.907 420.194 108.296L419.525 110.353Z" fill="#F0F0F0"/>
<path d="M204.636 270.967C200.191 270.972 195.93 272.74 192.787 275.882C189.644 279.025 187.877 283.286 187.872 287.731C181.498 334.659 179.369 382.067 181.512 429.377C181.639 432.398 181.78 435.161 181.944 437.827C182.181 442.229 182.483 446.876 182.841 451.642C183.046 454.454 183.263 457.274 183.5 460.084C183.897 464.662 184.333 469.313 184.798 473.909C185.089 476.716 185.392 479.537 185.715 482.347C186.337 487.865 187.04 493.522 187.867 499.641C187.859 504.097 189.62 508.374 192.765 511.531C195.91 514.689 200.179 516.468 204.636 516.478H485.837C490.282 516.473 494.543 514.705 497.686 511.562C500.829 508.419 502.596 504.158 502.601 499.714L502.614 499.598C503.867 493.891 505.033 488.075 506.082 482.312C506.643 479.273 507.127 476.513 507.562 473.875C508.351 469.071 509.053 464.422 509.647 460.057C510.053 457.126 510.421 454.288 510.738 451.618C511.262 447.248 511.735 442.732 512.186 437.81C512.433 435.135 512.659 432.372 512.878 429.364V429.363C516.316 381.943 512.859 334.275 502.614 287.847L502.601 287.731C502.596 283.286 500.829 279.025 497.686 275.882C494.543 272.74 490.282 270.972 485.837 270.967L204.636 270.967Z" fill="#3F3D56"/>
<path d="M356.154 342.735C295.224 342.735 230.661 337.198 146.162 326.122H146.153C141.772 326.116 137.548 324.493 134.29 321.565C131.032 318.636 128.97 314.609 128.498 310.254C128.421 309.599 128.384 308.94 128.387 308.281V257.448C128.385 257.339 128.39 257.231 128.401 257.123C128.497 252.452 130.415 248.004 133.747 244.73C137.08 241.456 141.561 239.615 146.232 239.602C293.242 219.614 382.546 219.616 544.308 239.607H544.315C548.984 239.637 553.455 241.493 556.774 244.777C560.093 248.061 561.996 252.512 562.076 257.181C562.085 257.269 562.089 257.359 562.086 257.448V308.281C562.089 308.942 562.052 309.602 561.974 310.259C561.496 314.625 559.421 318.661 556.147 321.589C552.874 324.518 548.633 326.134 544.241 326.126C474.352 337.197 417.069 342.735 356.154 342.735Z" fill="#ef8261"/>
<path d="M365.927 378.04H328.959C324.254 378.035 319.743 376.163 316.416 372.836C313.089 369.509 311.217 364.998 311.212 360.293V225.985C311.217 221.279 313.089 216.768 316.416 213.441C319.743 210.114 324.254 208.243 328.959 208.237H365.927C370.633 208.243 375.144 210.114 378.471 213.441C381.798 216.768 383.67 221.279 383.675 225.985V360.293C383.67 364.998 381.798 369.509 378.471 372.836C375.144 376.163 370.633 378.035 365.927 378.04Z" fill="#3F3D56"/>
<path d="M449.859 182.537C449.591 180.019 449.12 177.527 448.449 175.086C447.726 172.639 446.81 170.254 445.709 167.952C441.766 159.489 435.114 152.582 426.806 148.323C416.494 143.247 404.698 142.832 393.611 145.277C384.291 147.365 375.539 151.462 367.967 157.283C364.041 160.241 360.454 163.624 357.272 167.37C353.987 171.312 347.876 182.141 347.436 183.144C343.981 175.3 339.023 168.208 332.843 162.269C325.659 155.45 317.084 150.268 307.707 147.078C302.722 145.398 297.546 144.346 292.301 143.946C286.75 143.485 281.162 143.973 275.775 145.388C266.099 148.098 257.73 154.216 252.211 162.613C246.953 170.418 244.37 179.719 244.852 189.117C245.118 193.862 246.141 198.534 247.883 202.956C248.816 205.35 249.923 207.673 251.195 209.905C252.511 212.11 253.983 214.219 255.599 216.214C261.939 223.995 270.479 229.682 280.103 232.532C290.378 235.707 301.277 235.811 311.842 234.32C322.692 232.789 333.136 229.277 343.354 225.431C344.717 224.918 346.075 224.39 347.434 223.867C356.519 227.362 365.68 230.732 375.19 232.871C385.888 235.455 396.991 235.9 407.862 234.182C417.995 232.519 427.416 227.917 434.956 220.947C441.932 214.382 446.815 205.902 448.992 196.573C450.066 191.976 450.359 187.231 449.859 182.537ZM309.021 223.872C303.157 224.623 297.223 224.658 291.351 223.975C287.142 223.365 283.018 222.268 279.063 220.705C269.74 216.822 262.309 209.444 258.359 200.149C257.179 197.219 256.338 194.163 255.854 191.041C255.543 188.264 255.542 185.461 255.851 182.684C256.311 179.762 257.1 176.901 258.201 174.155C259.392 171.485 260.871 168.953 262.612 166.604C264.3 164.502 266.207 162.586 268.302 160.889C270.287 159.42 272.424 158.168 274.676 157.154C277.363 156.104 280.159 155.356 283.012 154.924C286.876 154.496 290.777 154.527 294.634 155.015C299.223 155.723 303.715 156.962 308.019 158.705C312.598 160.692 316.924 163.214 320.909 166.22C324.596 169.141 327.938 172.472 330.87 176.15C333.773 180.012 336.207 184.204 338.122 188.639C339.983 193.266 341.29 198.098 342.017 203.032L342.025 203.104C341.742 205.583 341.6 208.077 341.6 210.572C341.602 211.533 341.644 212.493 341.693 213.453C341.236 213.893 340.855 214.405 340.566 214.97C333.032 217.925 325.31 220.374 317.45 222.301C314.664 222.944 311.854 223.467 309.021 223.872ZM439.039 191.041C438.554 194.163 437.714 197.219 436.533 200.15C432.603 209.457 425.165 216.842 415.83 220.705C411.875 222.268 407.751 223.365 403.542 223.975C397.659 224.659 391.714 224.623 385.84 223.868C375.406 222.376 365.34 219.082 355.494 215.407C355.089 215.255 354.686 215.096 354.281 214.943C354.007 214.387 353.643 213.881 353.203 213.443C353.377 209.961 353.269 206.47 352.88 203.005C353.607 198.08 354.913 193.258 356.771 188.639C358.685 184.204 361.12 180.012 364.023 176.151C366.955 172.473 370.297 169.141 373.984 166.22C377.968 163.214 382.295 160.692 386.873 158.705C391.178 156.962 395.67 155.723 400.259 155.015C404.116 154.527 408.017 154.496 411.881 154.924C414.734 155.356 417.529 156.104 420.217 157.154C422.469 158.168 424.606 159.42 426.591 160.889C428.686 162.586 430.593 164.502 432.281 166.604C434.022 168.953 435.501 171.486 436.692 174.155C437.793 176.901 438.581 179.762 439.042 182.684C439.35 185.461 439.35 188.264 439.039 191.041Z" fill="#3F3D56"/>
<path d="M234.919 383.989C238.503 383.989 241.408 381.083 241.408 377.499C241.408 373.915 238.503 371.01 234.919 371.01C231.335 371.01 228.43 373.915 228.43 377.499C228.43 381.083 231.335 383.989 234.919 383.989Z" fill="#ef8261"/>
<path d="M281.425 367.765C285.009 367.765 287.915 364.86 287.915 361.276C287.915 357.692 285.009 354.787 281.425 354.787C277.841 354.787 274.936 357.692 274.936 361.276C274.936 364.86 277.841 367.765 281.425 367.765Z" fill="#ef8261"/>
<path d="M260.876 418.598C264.46 418.598 267.365 415.693 267.365 412.109C267.365 408.525 264.46 405.62 260.876 405.62C257.292 405.62 254.387 408.525 254.387 412.109C254.387 415.693 257.292 418.598 260.876 418.598Z" fill="#ef8261"/>
<path d="M453.391 383.989C456.975 383.989 459.88 381.083 459.88 377.499C459.88 373.915 456.975 371.01 453.391 371.01C449.807 371.01 446.902 373.915 446.902 377.499C446.902 381.083 449.807 383.989 453.391 383.989Z" fill="#ef8261"/>
<path d="M406.885 367.765C410.469 367.765 413.374 364.86 413.374 361.276C413.374 357.692 410.469 354.787 406.885 354.787C403.301 354.787 400.395 357.692 400.395 361.276C400.395 364.86 403.301 367.765 406.885 367.765Z" fill="#ef8261"/>
<path d="M427.434 418.598C431.018 418.598 433.923 415.693 433.923 412.109C433.923 408.525 431.018 405.62 427.434 405.62C423.85 405.62 420.945 408.525 420.945 412.109C420.945 415.693 423.85 418.598 427.434 418.598Z" fill="#ef8261"/>
<path d="M458.799 497.551C462.383 497.551 465.288 494.645 465.288 491.062C465.288 487.478 462.383 484.572 458.799 484.572C455.215 484.572 452.31 487.478 452.31 491.062C452.31 494.645 455.215 497.551 458.799 497.551Z" fill="#ef8261"/>
<path d="M475.022 451.044C478.606 451.044 481.511 448.139 481.511 444.555C481.511 440.971 478.606 438.066 475.022 438.066C471.438 438.066 468.533 440.971 468.533 444.555C468.533 448.139 471.438 451.044 475.022 451.044Z" fill="#ef8261"/>
<path d="M424.189 471.594C427.773 471.594 430.679 468.688 430.679 465.104C430.679 461.521 427.773 458.615 424.189 458.615C420.605 458.615 417.7 461.521 417.7 465.104C417.7 468.688 420.605 471.594 424.189 471.594Z" fill="#ef8261"/>
<path d="M272.773 497.551C276.357 497.551 279.262 494.645 279.262 491.062C279.262 487.478 276.357 484.572 272.773 484.572C269.189 484.572 266.284 487.478 266.284 491.062C266.284 494.645 269.189 497.551 272.773 497.551Z" fill="#ef8261"/>
<path d="M288.996 451.044C292.58 451.044 295.485 448.139 295.485 444.555C295.485 440.971 292.58 438.066 288.996 438.066C285.412 438.066 282.507 440.971 282.507 444.555C282.507 448.139 285.412 451.044 288.996 451.044Z" fill="#ef8261"/>
<path d="M238.163 471.594C241.747 471.594 244.653 468.688 244.653 465.104C244.653 461.521 241.747 458.615 238.163 458.615C234.58 458.615 231.674 461.521 231.674 465.104C231.674 468.688 234.58 471.594 238.163 471.594Z" fill="#ef8261"/>
<path d="M424.615 39.2348C427.072 40.2605 429.752 40.6362 432.397 40.3255C435.042 40.0148 437.562 39.0283 439.714 37.461C445.202 33.3679 447.259 26.2232 448.983 19.5986L454.073 0L445.476 5.21982C439.292 8.97291 432.968 12.8503 428.505 18.5481C424.041 24.2459 421.784 32.2305 424.725 38.8424" fill="#858585"/>
<path d="M194.671 206.645C196.331 204.563 197.426 202.088 197.851 199.46C198.277 196.831 198.018 194.137 197.1 191.638C194.667 185.238 188.359 181.303 182.46 177.831L165.005 167.568L167.67 177.266C169.586 184.241 171.583 191.386 175.841 197.239C180.098 203.092 187.159 207.45 194.324 206.432" fill="#F2F2F2"/>
<path d="M604.577 508.397C606.236 506.314 607.331 503.84 607.757 501.211C608.182 498.583 607.924 495.889 607.006 493.389C604.573 486.99 598.264 483.055 592.365 479.583L574.91 469.319L577.576 479.018C579.492 485.992 581.489 493.137 585.746 498.99C590.004 504.843 597.065 509.202 604.229 508.184" fill="#F2F2F2"/>
<path d="M274.936 125.499C279.715 125.499 283.588 121.625 283.588 116.847C283.588 112.068 279.715 108.194 274.936 108.194C270.157 108.194 266.284 112.068 266.284 116.847C266.284 121.625 270.157 125.499 274.936 125.499Z" fill="#e8cbd1"/>
<path d="M44.5668 380.744C49.3454 380.744 53.2192 376.87 53.2192 372.092C53.2192 367.313 49.3454 363.439 44.5668 363.439C39.7882 363.439 35.9144 367.313 35.9144 372.092C35.9144 376.87 39.7882 380.744 44.5668 380.744Z" fill="#d8bac0"/>
<path d="M639.417 310.443C644.196 310.443 648.069 306.57 648.069 301.791C648.069 297.012 644.196 293.139 639.417 293.139C634.638 293.139 630.765 297.012 630.765 301.791C630.765 306.57 634.638 310.443 639.417 310.443Z" fill="#e2d2d5"/>
<path d="M35.9145 163.353C40.693 163.353 44.5668 159.479 44.5668 154.701C44.5668 149.922 40.693 146.048 35.9145 146.048C31.1359 146.048 27.2621 149.922 27.2621 154.701C27.2621 159.479 31.1359 163.353 35.9145 163.353Z" fill="#E6E6E6"/>
<path d="M571.28 409.946C576.058 409.946 579.932 406.072 579.932 401.293C579.932 396.515 576.058 392.641 571.28 392.641C566.501 392.641 562.627 396.515 562.627 401.293C562.627 406.072 566.501 409.946 571.28 409.946Z" fill="#E6E6E6"/>
<path d="M588.584 147.13C593.363 147.13 597.237 143.256 597.237 138.478C597.237 133.699 593.363 129.825 588.584 129.825C583.806 129.825 579.932 133.699 579.932 138.478C579.932 143.256 583.806 147.13 588.584 147.13Z" fill="#E6E6E6"/>
<path d="M209.207 284.742C208.459 285.925 206.646 285.753 205.628 285.013C204.214 283.987 204.672 282.009 205.645 280.84C208.739 277.126 213.856 281.047 214.546 284.736C214.803 286.534 214.526 288.369 213.75 290.011C212.974 291.654 211.732 293.032 210.18 293.976C206.65 296.068 202.065 295.019 199.03 292.515C192.699 287.293 194.423 276.836 201.455 273.058C205.943 270.646 211.616 271.705 216.037 273.725C221.014 275.998 225.293 279.483 229.896 282.388C239.994 288.709 251.416 292.61 263.272 293.785C265.347 293.997 265.332 290.751 263.272 290.54C256.702 289.861 250.252 288.308 244.094 285.923C238 283.453 232.217 280.278 226.861 276.464C221.442 272.75 215.781 269.142 209.075 268.528C206.369 268.212 203.627 268.618 201.129 269.705C198.631 270.792 196.465 272.522 194.851 274.717C193.416 276.682 192.456 278.952 192.045 281.35C191.634 283.748 191.784 286.209 192.483 288.539C193.326 290.976 194.799 293.146 196.753 294.828C198.707 296.51 201.072 297.645 203.607 298.116C206.047 298.577 208.571 298.265 210.825 297.224C213.08 296.182 214.953 294.463 216.184 292.306C218.652 288.037 218.572 282.303 214.844 278.763C213.775 277.677 212.437 276.894 210.967 276.494C209.496 276.094 207.946 276.092 206.475 276.487C205.119 276.945 203.926 277.788 203.042 278.914C202.157 280.039 201.62 281.398 201.496 282.823C201.136 288.365 209.002 291.136 212.009 286.38C213.128 284.609 210.321 282.979 209.207 284.742Z" fill="#ffffff"/>
<path d="M486.673 284.742C487.421 285.925 489.235 285.753 490.253 285.013C491.667 283.987 491.209 282.009 490.236 280.84C487.142 277.126 482.025 281.047 481.335 284.736C481.078 286.534 481.355 288.369 482.131 290.011C482.907 291.654 484.148 293.032 485.701 293.976C489.231 296.068 493.816 295.019 496.851 292.515C503.182 287.293 501.458 276.836 494.426 273.058C489.938 270.646 484.264 271.705 479.843 273.725C474.867 275.998 470.587 279.483 465.985 282.388C455.887 288.709 444.464 292.61 432.609 293.785C430.534 293.997 430.549 290.751 432.609 290.54C439.179 289.861 445.628 288.308 451.787 285.923C457.88 283.453 463.664 280.278 469.02 276.464C474.438 272.75 480.1 269.142 486.806 268.528C489.512 268.212 492.253 268.618 494.752 269.705C497.25 270.792 499.416 272.522 501.029 274.717C502.464 276.682 503.425 278.952 503.836 281.35C504.247 283.748 504.097 286.209 503.397 288.539C502.555 290.976 501.081 293.146 499.127 294.828C497.173 296.51 494.809 297.645 492.274 298.116C489.833 298.577 487.31 298.265 485.055 297.224C482.801 296.182 480.928 294.463 479.697 292.306C477.229 288.037 477.309 282.303 481.037 278.763C482.106 277.677 483.444 276.894 484.914 276.494C486.384 276.094 487.935 276.092 489.406 276.487C490.762 276.945 491.955 277.788 492.839 278.914C493.723 280.039 494.26 281.398 494.385 282.823C494.744 288.365 486.879 291.136 483.872 286.38C482.753 284.609 485.559 282.979 486.673 284.742Z" fill="#ffffff"/>
<path d="M96.2951 39.3278L92.0091 44.7048L76.8521 35.7388L81.1371 30.3618L96.2951 39.3278Z" fill="#E4E4E4"/>
<path d="M112.11 62.4302L115.895 68.0792L99.972 75.9992L96.187 70.3512L112.11 62.4302Z" fill="#E4E4E4"/>
<path d="M128.593 37.8721L136.157 38.1401L135.404 53.9671L127.839 53.7001L128.593 37.8721Z" fill="#E4E4E4"/>
<path d="M631.66 370.281L627.374 375.658L612.217 366.692L616.503 361.315L631.66 370.281Z" fill="#E4E4E4"/>
<path d="M647.475 393.383L651.26 399.032L635.337 406.952L631.552 401.303L647.475 393.383Z" fill="#E4E4E4"/>
<path d="M663.958 368.825L671.522 369.093L670.769 384.92L663.204 384.653L663.958 368.825Z" fill="#E4E4E4"/>
</g>
<defs>
<clipPath id="clip0_317_243">
<rect width="671.522" height="516.552" fill="white"/>
</clipPath>
</defs>
</svg>
